# xmcd
#
# Track frame offsets: 
#        150
#        20511
#        44096
#        71748
#        75001
#        95234
#        99320
#        110942
#        118920
#        142762
#        164232
#        177221
#        193688
#        213396
#        225403
#        231845
#        245032
#        260501
#        270553
#
# Disc length: 3927 seconds
#
# Revision: 0
# Processed by: cddbd v1.5.2PL0 Copyright (c) Steve Scherf et al.
# Submitted via: ExactAudioCopy v0.95a4
#
DISCID=160f5513
DTITLE=Lightnin' Hopkins - Lightnin' Strikes Twice (Disc2)
DYEAR=2005
DGENRE=Bass
TTITLE0=You And Your Man Don't Get Along
TTITLE1=Rock Me Late At Night
TTITLE2=With You On My Miind
TTITLE3=Sam Talking To The Group
TTITLE4=Little Rose
TTITLE5=Sam And Curley Talking
TTITLE6=Possum Hunt
TTITLE7=Sam Talking And Strumming
TTITLE8=Love Me Or Leave Me
TTITLE9=Load The Train
TTITLE10=Baby Don't Tear My Clothes
TTITLE11=Back In Mothers Arms
TTITLE12=John Hardy
TTITLE13=Goddnight Irene
TTITLE14=Chicka Choca Shalali
TTITLE15=One Meat Ball
TTITLE16=Sorrow To My Heart
TTITLE17=Blow Out The Candle
TTITLE18=Chicken Minnie
EXTD=
EXTT0=
EXTT1=
EXTT2=
EXTT3=
EXTT4=
EXTT5=
EXTT6=
EXTT7=
EXTT8=
EXTT9=
EXTT10=
EXTT11=
EXTT12=
EXTT13=
EXTT14=
EXTT15=
EXTT16=
EXTT17=
EXTT18=
PLAYORDER=
